<svg width="100" height="122" viewBox="0 0 100 122" fill="none" xmlns="http://www.w3.org/2000/svg">
<rect width="100" height="100" fill="black"/>
<path d="M32.1562 86V68.8672H35.7891V86H32.1562Z" fill="white"/>
<path d="M13.7305 86H10.1562V68.8672H19.9766V71.8438H13.7305V76.2617H19.543V79.2266H13.7305V86Z" fill="white"/>
<path d="M32.1562 64V46.8672H35.7891V64H32.1562Z" fill="white"/>
<path d="M24.1953 64H20.5742V56.6055H13.7891V64H10.1562V46.8672H13.7891V53.582H20.5742V46.8672H24.1953V64Z" fill="white"/>
<path d="M6.61309 115H5.13447V111.981H2.36387V115H0.880469V108.004H2.36387V110.746H5.13447V108.004H6.61309V115ZM8.38359 115V108.004H9.86699V115H8.38359ZM13.0874 115H11.6279V108.004H15.6379V109.22H13.0874V111.024H15.4608V112.234H13.0874V115ZM17.0064 115V108.004H18.4898V115H17.0064ZM25.9834 115H24.5048V111.981H21.7342V115H20.2508V108.004H21.7342V110.746H24.5048V108.004H25.9834V115ZM34.1038 111.492C34.1038 112.032 34.0368 112.523 33.9028 112.966C33.7688 113.407 33.5647 113.786 33.2903 114.105C33.0192 114.424 32.6746 114.67 32.2567 114.842C31.8388 115.011 31.3444 115.096 30.7733 115.096C30.2023 115.096 29.7078 115.011 29.2899 114.842C28.872 114.67 28.5259 114.424 28.2516 114.105C27.9804 113.786 27.7778 113.405 27.6438 112.962C27.5099 112.518 27.4429 112.025 27.4429 111.483C27.4429 110.759 27.5609 110.129 27.797 109.593C28.0362 109.054 28.4031 108.636 28.8976 108.339C29.392 108.042 30.0205 107.894 30.7829 107.894C31.5422 107.894 32.1658 108.042 32.6539 108.339C33.1452 108.636 33.5089 109.054 33.7449 109.593C33.9842 110.132 34.1038 110.765 34.1038 111.492ZM28.998 111.492C28.998 111.981 29.0587 112.402 29.1799 112.756C29.3043 113.107 29.4973 113.378 29.7589 113.569C30.0205 113.757 30.3586 113.852 30.7733 113.852C31.1944 113.852 31.5358 113.757 31.7974 113.569C32.059 113.378 32.2488 113.107 32.3668 112.756C32.488 112.402 32.5486 111.981 32.5486 111.492C32.5486 110.759 32.4115 110.181 32.1371 109.76C31.8628 109.339 31.4114 109.129 30.7829 109.129C30.365 109.129 30.0237 109.224 29.7589 109.416C29.4973 109.604 29.3043 109.875 29.1799 110.229C29.0587 110.58 28.998 111.001 28.998 111.492ZM37.5922 108.004C38.227 108.004 38.7502 108.081 39.1617 108.234C39.5764 108.387 39.8843 108.618 40.0853 108.928C40.2862 109.237 40.3867 109.628 40.3867 110.1C40.3867 110.419 40.3261 110.698 40.2049 110.937C40.0837 111.177 39.9242 111.379 39.7264 111.545C39.5286 111.711 39.3148 111.847 39.0852 111.952L41.1428 115H39.4967L37.8267 112.316H37.0371V115H35.5537V108.004H37.5922ZM37.4869 109.22H37.0371V111.11H37.5156C38.0069 111.11 38.3578 111.028 38.5684 110.866C38.7821 110.7 38.889 110.457 38.889 110.138C38.889 109.807 38.7741 109.57 38.5444 109.43C38.3179 109.29 37.9654 109.22 37.4869 109.22ZM42.0232 115V108.004H43.5066V115H42.0232ZM49.8278 115H44.6216V114.038L47.976 109.229H44.7125V108.004H49.7369V108.961L46.3873 113.775H49.8278V115ZM57.2927 111.492C57.2927 112.032 57.2257 112.523 57.0917 112.966C56.9577 113.407 56.7535 113.786 56.4792 114.105C56.208 114.424 55.8635 114.67 55.4456 114.842C55.0277 115.011 54.5332 115.096 53.9622 115.096C53.3912 115.096 52.8967 115.011 52.4788 114.842C52.0609 114.67 51.7148 114.424 51.4404 114.105C51.1693 113.786 50.9667 113.405 50.8327 112.962C50.6987 112.518 50.6317 112.025 50.6317 111.483C50.6317 110.759 50.7498 110.129 50.9858 109.593C51.2251 109.054 51.592 108.636 52.0864 108.339C52.5809 108.042 53.2093 107.894 53.9718 107.894C54.731 107.894 55.3547 108.042 55.8428 108.339C56.3341 108.636 56.6977 109.054 56.9338 109.593C57.173 110.132 57.2927 110.765 57.2927 111.492ZM52.1869 111.492C52.1869 111.981 52.2475 112.402 52.3688 112.756C52.4932 113.107 52.6862 113.378 52.9478 113.569C53.2093 113.757 53.5475 113.852 53.9622 113.852C54.3833 113.852 54.7246 113.757 54.9862 113.569C55.2478 113.378 55.4376 113.107 55.5557 112.756C55.6769 112.402 55.7375 111.981 55.7375 111.492C55.7375 110.759 55.6003 110.181 55.326 109.76C55.0516 109.339 54.6002 109.129 53.9718 109.129C53.5539 109.129 53.2125 109.224 52.9478 109.416C52.6862 109.604 52.4932 109.875 52.3688 110.229C52.2475 110.58 52.1869 111.001 52.1869 111.492ZM64.9489 115H63.0636L60.0202 109.708H59.9771C59.9899 109.928 60.0011 110.149 60.0106 110.373C60.0202 110.596 60.0298 110.819 60.0394 111.043C60.0489 111.263 60.0585 111.485 60.0681 111.708V115H58.7426V108.004H60.6136L63.6521 113.244H63.6856C63.6793 113.027 63.6713 112.812 63.6617 112.598C63.6521 112.384 63.6426 112.17 63.633 111.957C63.6266 111.743 63.6202 111.529 63.6139 111.315V108.004H64.9489V115ZM66.394 114.316C66.394 114.016 66.4754 113.805 66.6381 113.684C66.804 113.563 67.0034 113.502 67.2362 113.502C67.4627 113.502 67.6573 113.563 67.82 113.684C67.9859 113.805 68.0689 114.016 68.0689 114.316C68.0689 114.603 67.9859 114.81 67.82 114.938C67.6573 115.065 67.4627 115.129 67.2362 115.129C67.0034 115.129 66.804 115.065 66.6381 114.938C66.4754 114.81 66.394 114.603 66.394 114.316ZM72.4808 109.138C72.1968 109.138 71.9448 109.194 71.7247 109.306C71.5078 109.414 71.3244 109.572 71.1744 109.779C71.0277 109.987 70.916 110.237 70.8395 110.531C70.7629 110.824 70.7246 111.154 70.7246 111.521C70.7246 112.016 70.7852 112.438 70.9064 112.789C71.0309 113.137 71.2223 113.403 71.4807 113.588C71.7391 113.77 72.0724 113.861 72.4808 113.861C72.7647 113.861 73.0486 113.829 73.3325 113.765C73.6196 113.702 73.9307 113.611 74.2656 113.493V114.737C73.9562 114.864 73.6515 114.955 73.3517 115.01C73.0518 115.067 72.7152 115.096 72.342 115.096C71.621 115.096 71.0277 114.947 70.5619 114.651C70.0994 114.351 69.7564 113.933 69.5331 113.397C69.3098 112.858 69.1981 112.229 69.1981 111.512C69.1981 110.982 69.2699 110.497 69.4135 110.057C69.557 109.617 69.7676 109.235 70.0451 108.913C70.3227 108.591 70.6656 108.342 71.0739 108.167C71.4823 107.991 71.9512 107.904 72.4808 107.904C72.8285 107.904 73.1762 107.948 73.5239 108.038C73.8748 108.124 74.2098 108.243 74.5288 108.396L74.0503 109.602C73.7887 109.478 73.5255 109.369 73.2607 109.277C72.996 109.184 72.736 109.138 72.4808 109.138ZM82.1085 111.492C82.1085 112.032 82.0415 112.523 81.9075 112.966C81.7735 113.407 81.5694 113.786 81.295 114.105C81.0239 114.424 80.6793 114.67 80.2614 114.842C79.8435 115.011 79.3491 115.096 78.778 115.096C78.207 115.096 77.7125 115.011 77.2946 114.842C76.8767 114.67 76.5306 114.424 76.2563 114.105C75.9851 113.786 75.7825 113.405 75.6485 112.962C75.5146 112.518 75.4476 112.025 75.4476 111.483C75.4476 110.759 75.5656 110.129 75.8017 109.593C76.0409 109.054 76.4078 108.636 76.9022 108.339C77.3967 108.042 78.0252 107.894 78.7876 107.894C79.5468 107.894 80.1705 108.042 80.6586 108.339C81.1499 108.636 81.5135 109.054 81.7496 109.593C81.9889 110.132 82.1085 110.765 82.1085 111.492ZM77.0027 111.492C77.0027 111.981 77.0633 112.402 77.1846 112.756C77.309 113.107 77.502 113.378 77.7636 113.569C78.0252 113.757 78.3633 113.852 78.778 113.852C79.1991 113.852 79.5405 113.757 79.8021 113.569C80.0636 113.378 80.2535 113.107 80.3715 112.756C80.4927 112.402 80.5533 111.981 80.5533 111.492C80.5533 110.759 80.4161 110.181 80.1418 109.76C79.8675 109.339 79.4161 109.129 78.7876 109.129C78.3697 109.129 78.0284 109.224 77.7636 109.416C77.502 109.604 77.309 109.875 77.1846 110.229C77.0633 110.58 77.0027 111.001 77.0027 111.492ZM83.2378 114.316C83.2378 114.016 83.3191 113.805 83.4818 113.684C83.6477 113.563 83.8471 113.502 84.08 113.502C84.3065 113.502 84.5011 113.563 84.6638 113.684C84.8297 113.805 84.9126 114.016 84.9126 114.316C84.9126 114.603 84.8297 114.81 84.6638 114.938C84.5011 115.065 84.3065 115.129 84.08 115.129C83.8471 115.129 83.6477 115.065 83.4818 114.938C83.3191 114.81 83.2378 114.603 83.2378 114.316ZM92.0473 108.004V112.531C92.0473 113.013 91.9404 113.448 91.7267 113.837C91.5161 114.223 91.1955 114.529 90.7648 114.756C90.3374 114.982 89.7982 115.096 89.1475 115.096C88.2223 115.096 87.5173 114.86 87.0324 114.387C86.5475 113.915 86.3051 113.29 86.3051 112.512V108.004H87.7837V112.287C87.7837 112.864 87.9017 113.269 88.1378 113.502C88.3739 113.735 88.7232 113.852 89.1857 113.852C89.5111 113.852 89.7743 113.796 89.9753 113.684C90.1795 113.572 90.3294 113.4 90.4251 113.167C90.5208 112.934 90.5687 112.638 90.5687 112.277V108.004H92.0473ZM99.3877 115H97.7033L95.8706 112.052L95.2438 112.502V115H93.7604V108.004H95.2438V111.205C95.3426 111.068 95.4399 110.931 95.5356 110.794C95.6313 110.657 95.7286 110.519 95.8275 110.382L97.7225 108.004H99.3686L96.9281 111.1L99.3877 115Z" fill="black"/>
</svg>
