<svg width="102" height="123" viewBox="0 0 102 123" fill="none" xmlns="http://www.w3.org/2000/svg">
<rect x="0.5" y="0.5" width="101" height="101" fill="black" stroke="white"/>
<path d="M33.1562 87V69.8672H36.7891V87H33.1562Z" fill="white"/>
<path d="M14.7305 87H11.1562V69.8672H20.9766V72.8438H14.7305V77.2617H20.543V80.2266H14.7305V87Z" fill="white"/>
<path d="M33.1562 65V47.8672H36.7891V65H33.1562Z" fill="white"/>
<path d="M25.1953 65H21.5742V57.6055H14.7891V65H11.1562V47.8672H14.7891V54.582H21.5742V47.8672H25.1953V65Z" fill="white"/>
<path d="M7.61309 116H6.13447V112.981H3.36387V116H1.88047V109.004H3.36387V111.746H6.13447V109.004H7.61309V116ZM9.38359 116V109.004H10.867V116H9.38359ZM14.0874 116H12.6279V109.004H16.6379V110.22H14.0874V112.024H16.4608V113.234H14.0874V116ZM18.0064 116V109.004H19.4898V116H18.0064ZM26.9834 116H25.5048V112.981H22.7342V116H21.2508V109.004H22.7342V111.746H25.5048V109.004H26.9834V116ZM35.1038 112.492C35.1038 113.032 35.0368 113.523 34.9028 113.966C34.7688 114.407 34.5647 114.786 34.2903 115.105C34.0192 115.424 33.6746 115.67 33.2567 115.842C32.8388 116.011 32.3444 116.096 31.7733 116.096C31.2023 116.096 30.7078 116.011 30.2899 115.842C29.872 115.67 29.5259 115.424 29.2516 115.105C28.9804 114.786 28.7778 114.405 28.6438 113.962C28.5099 113.518 28.4429 113.025 28.4429 112.483C28.4429 111.759 28.5609 111.129 28.797 110.593C29.0362 110.054 29.4031 109.636 29.8976 109.339C30.392 109.042 31.0205 108.894 31.7829 108.894C32.5422 108.894 33.1658 109.042 33.6539 109.339C34.1452 109.636 34.5089 110.054 34.7449 110.593C34.9842 111.132 35.1038 111.765 35.1038 112.492ZM29.998 112.492C29.998 112.981 30.0587 113.402 30.1799 113.756C30.3043 114.107 30.4973 114.378 30.7589 114.569C31.0205 114.757 31.3586 114.852 31.7733 114.852C32.1944 114.852 32.5358 114.757 32.7974 114.569C33.059 114.378 33.2488 114.107 33.3668 113.756C33.488 113.402 33.5486 112.981 33.5486 112.492C33.5486 111.759 33.4115 111.181 33.1371 110.76C32.8628 110.339 32.4114 110.129 31.7829 110.129C31.365 110.129 31.0237 110.224 30.7589 110.416C30.4973 110.604 30.3043 110.875 30.1799 111.229C30.0587 111.58 29.998 112.001 29.998 112.492ZM38.5922 109.004C39.227 109.004 39.7502 109.081 40.1617 109.234C40.5764 109.387 40.8843 109.618 41.0853 109.928C41.2862 110.237 41.3867 110.628 41.3867 111.1C41.3867 111.419 41.3261 111.698 41.2049 111.937C41.0837 112.177 40.9242 112.379 40.7264 112.545C40.5286 112.711 40.3148 112.847 40.0852 112.952L42.1428 116H40.4967L38.8267 113.316H38.0371V116H36.5537V109.004H38.5922ZM38.4869 110.22H38.0371V112.11H38.5156C39.0069 112.11 39.3578 112.028 39.5684 111.866C39.7821 111.7 39.889 111.457 39.889 111.138C39.889 110.807 39.7741 110.57 39.5444 110.43C39.3179 110.29 38.9654 110.22 38.4869 110.22ZM43.0232 116V109.004H44.5066V116H43.0232ZM50.8278 116H45.6216V115.038L48.976 110.229H45.7125V109.004H50.7369V109.961L47.3873 114.775H50.8278V116ZM58.2927 112.492C58.2927 113.032 58.2257 113.523 58.0917 113.966C57.9577 114.407 57.7535 114.786 57.4792 115.105C57.208 115.424 56.8635 115.67 56.4456 115.842C56.0277 116.011 55.5332 116.096 54.9622 116.096C54.3912 116.096 53.8967 116.011 53.4788 115.842C53.0609 115.67 52.7148 115.424 52.4404 115.105C52.1693 114.786 51.9667 114.405 51.8327 113.962C51.6987 113.518 51.6317 113.025 51.6317 112.483C51.6317 111.759 51.7498 111.129 51.9858 110.593C52.2251 110.054 52.592 109.636 53.0864 109.339C53.5809 109.042 54.2093 108.894 54.9718 108.894C55.731 108.894 56.3547 109.042 56.8428 109.339C57.3341 109.636 57.6977 110.054 57.9338 110.593C58.173 111.132 58.2927 111.765 58.2927 112.492ZM53.1869 112.492C53.1869 112.981 53.2475 113.402 53.3688 113.756C53.4932 114.107 53.6862 114.378 53.9478 114.569C54.2093 114.757 54.5475 114.852 54.9622 114.852C55.3833 114.852 55.7246 114.757 55.9862 114.569C56.2478 114.378 56.4376 114.107 56.5557 113.756C56.6769 113.402 56.7375 112.981 56.7375 112.492C56.7375 111.759 56.6003 111.181 56.326 110.76C56.0516 110.339 55.6002 110.129 54.9718 110.129C54.5539 110.129 54.2125 110.224 53.9478 110.416C53.6862 110.604 53.4932 110.875 53.3688 111.229C53.2475 111.58 53.1869 112.001 53.1869 112.492ZM65.9489 116H64.0636L61.0202 110.708H60.9771C60.9899 110.928 61.0011 111.149 61.0106 111.373C61.0202 111.596 61.0298 111.819 61.0394 112.043C61.0489 112.263 61.0585 112.485 61.0681 112.708V116H59.7426V109.004H61.6136L64.6521 114.244H64.6856C64.6793 114.027 64.6713 113.812 64.6617 113.598C64.6521 113.384 64.6426 113.17 64.633 112.957C64.6266 112.743 64.6202 112.529 64.6139 112.315V109.004H65.9489V116ZM67.394 115.316C67.394 115.016 67.4754 114.805 67.6381 114.684C67.804 114.563 68.0034 114.502 68.2362 114.502C68.4627 114.502 68.6573 114.563 68.82 114.684C68.9859 114.805 69.0689 115.016 69.0689 115.316C69.0689 115.603 68.9859 115.81 68.82 115.938C68.6573 116.065 68.4627 116.129 68.2362 116.129C68.0034 116.129 67.804 116.065 67.6381 115.938C67.4754 115.81 67.394 115.603 67.394 115.316ZM73.4808 110.138C73.1968 110.138 72.9448 110.194 72.7247 110.306C72.5078 110.414 72.3244 110.572 72.1744 110.779C72.0277 110.987 71.916 111.237 71.8395 111.531C71.7629 111.824 71.7246 112.154 71.7246 112.521C71.7246 113.016 71.7852 113.438 71.9064 113.789C72.0309 114.137 72.2223 114.403 72.4807 114.588C72.7391 114.77 73.0724 114.861 73.4808 114.861C73.7647 114.861 74.0486 114.829 74.3325 114.765C74.6196 114.702 74.9307 114.611 75.2656 114.493V115.737C74.9562 115.864 74.6515 115.955 74.3517 116.01C74.0518 116.067 73.7152 116.096 73.342 116.096C72.621 116.096 72.0277 115.947 71.5619 115.651C71.0994 115.351 70.7564 114.933 70.5331 114.397C70.3098 113.858 70.1981 113.229 70.1981 112.512C70.1981 111.982 70.2699 111.497 70.4135 111.057C70.557 110.617 70.7676 110.235 71.0451 109.913C71.3227 109.591 71.6656 109.342 72.0739 109.167C72.4823 108.991 72.9512 108.904 73.4808 108.904C73.8285 108.904 74.1762 108.948 74.5239 109.038C74.8748 109.124 75.2098 109.243 75.5288 109.396L75.0503 110.602C74.7887 110.478 74.5255 110.369 74.2607 110.277C73.996 110.184 73.736 110.138 73.4808 110.138ZM83.1085 112.492C83.1085 113.032 83.0415 113.523 82.9075 113.966C82.7735 114.407 82.5694 114.786 82.295 115.105C82.0239 115.424 81.6793 115.67 81.2614 115.842C80.8435 116.011 80.3491 116.096 79.778 116.096C79.207 116.096 78.7125 116.011 78.2946 115.842C77.8767 115.67 77.5306 115.424 77.2563 115.105C76.9851 114.786 76.7825 114.405 76.6485 113.962C76.5146 113.518 76.4476 113.025 76.4476 112.483C76.4476 111.759 76.5656 111.129 76.8017 110.593C77.0409 110.054 77.4078 109.636 77.9022 109.339C78.3967 109.042 79.0252 108.894 79.7876 108.894C80.5468 108.894 81.1705 109.042 81.6586 109.339C82.1499 109.636 82.5135 110.054 82.7496 110.593C82.9889 111.132 83.1085 111.765 83.1085 112.492ZM78.0027 112.492C78.0027 112.981 78.0633 113.402 78.1846 113.756C78.309 114.107 78.502 114.378 78.7636 114.569C79.0252 114.757 79.3633 114.852 79.778 114.852C80.1991 114.852 80.5405 114.757 80.8021 114.569C81.0636 114.378 81.2535 114.107 81.3715 113.756C81.4927 113.402 81.5533 112.981 81.5533 112.492C81.5533 111.759 81.4161 111.181 81.1418 110.76C80.8675 110.339 80.4161 110.129 79.7876 110.129C79.3697 110.129 79.0284 110.224 78.7636 110.416C78.502 110.604 78.309 110.875 78.1846 111.229C78.0633 111.58 78.0027 112.001 78.0027 112.492ZM84.2378 115.316C84.2378 115.016 84.3191 114.805 84.4818 114.684C84.6477 114.563 84.8471 114.502 85.08 114.502C85.3065 114.502 85.5011 114.563 85.6638 114.684C85.8297 114.805 85.9126 115.016 85.9126 115.316C85.9126 115.603 85.8297 115.81 85.6638 115.938C85.5011 116.065 85.3065 116.129 85.08 116.129C84.8471 116.129 84.6477 116.065 84.4818 115.938C84.3191 115.81 84.2378 115.603 84.2378 115.316ZM93.0473 109.004V113.531C93.0473 114.013 92.9404 114.448 92.7267 114.837C92.5161 115.223 92.1955 115.529 91.7648 115.756C91.3374 115.982 90.7982 116.096 90.1475 116.096C89.2223 116.096 88.5173 115.86 88.0324 115.387C87.5475 114.915 87.3051 114.29 87.3051 113.512V109.004H88.7837V113.287C88.7837 113.864 88.9017 114.269 89.1378 114.502C89.3739 114.735 89.7232 114.852 90.1857 114.852C90.5111 114.852 90.7743 114.796 90.9753 114.684C91.1795 114.572 91.3294 114.4 91.4251 114.167C91.5208 113.934 91.5687 113.638 91.5687 113.277V109.004H93.0473ZM100.388 116H98.7033L96.8706 113.052L96.2438 113.502V116H94.7604V109.004H96.2438V112.205C96.3426 112.068 96.4399 111.931 96.5356 111.794C96.6313 111.657 96.7286 111.519 96.8275 111.382L98.7225 109.004H100.369L97.9281 112.1L100.388 116Z" fill="white"/>
</svg>
